<svg width="16" height="13" viewBox="0 0 16 13" fill="none" xmlns="http://www.w3.org/2000/svg">
<path d="M15.6917 5.70515L10.3037 0.319148C10.2064 0.219083 10.0902 0.139342 9.96187 0.0845593C9.83353 0.0297762 9.69558 0.00104272 9.55604 2.78572e-05C9.4165 -0.000987008 9.27814 0.0257369 9.14902 0.0786475C9.01989 0.131558 8.90257 0.209601 8.80386 0.308241C8.70515 0.406881 8.62703 0.524152 8.57403 0.653242C8.52103 0.782331 8.49421 0.920666 8.49513 1.06021C8.49605 1.19975 8.52469 1.33772 8.57938 1.4661C8.63408 1.59448 8.71374 1.71071 8.81374 1.80805L12.403 5.39633H1.05327C0.773927 5.39633 0.506023 5.5073 0.308496 5.70482C0.110969 5.90235 0 6.17025 0 6.4496C0 6.72894 0.110969 6.99685 0.308496 7.19437C0.506023 7.3919 0.773927 7.50287 1.05327 7.50287H12.403L8.81374 11.0922C8.71374 11.1895 8.63408 11.3057 8.57938 11.4341C8.52469 11.5625 8.49605 11.7005 8.49513 11.84C8.49421 11.9796 8.52103 12.1179 8.57403 12.247C8.62703 12.3761 8.70515 12.4933 8.80386 12.592C8.90257 12.6906 9.01989 12.7687 9.14902 12.8216C9.27814 12.8745 9.4165 12.9012 9.55604 12.9002C9.69558 12.8992 9.83353 12.8704 9.96187 12.8157C10.0902 12.7609 10.2064 12.6811 10.3037 12.5811L15.6917 7.19405C15.889 6.99655 15.9999 6.72878 15.9999 6.4496C15.9999 6.17041 15.889 5.90265 15.6917 5.70515Z" fill="white"/>
</svg>
