<svg width="7" height="8" viewBox="0 0 7 8" fill="none" xmlns="http://www.w3.org/2000/svg">
<path d="M6.07438 6.30139C6.13011 6.35813 6.16761 6.43311 6.07438 6.50405L4.91012 7.25489C4.81689 7.31164 4.7794 7.27414 4.74191 7.17991L3.29696 4.66493L1.4011 6.7523C1.38185 6.78878 1.32611 6.82627 1.27038 6.7523L0.369571 5.81298C0.275335 5.75725 0.294588 5.70051 0.369571 5.64478L2.50862 3.86139L0.0686245 2.94234C0.0311329 2.94234 -0.024598 2.86735 0.0118804 2.77312L0.650252 1.49739C0.655181 1.48033 0.664637 1.46493 0.677615 1.45282C0.690594 1.44071 0.70661 1.43234 0.723964 1.4286C0.741318 1.42486 0.75936 1.42588 0.776176 1.43157C0.792992 1.43726 0.807954 1.4474 0.819471 1.46091L2.95852 2.84911L3.09025 0.113237C3.08697 0.087552 3.09365 0.0615858 3.10891 0.0406692C3.12417 0.0197527 3.14686 0.005473 3.17233 0.000761876C3.18243 -0.000253958 3.19262 -0.000253958 3.20272 0.000761876L4.76015 0.203419C4.85438 0.203419 4.87262 0.240911 4.85438 0.335147L4.12178 3.01732L6.59927 2.26647C6.655 2.22898 6.71174 2.22898 6.74923 2.34146L6.99344 3.72966C7.01167 3.8239 6.99344 3.86139 6.91845 3.86139L4.32849 4.06405L6.07438 6.30139Z" fill="#464646"/>
</svg>
