<svg width="763" height="765" viewBox="0 0 763 765" fill="none" xmlns="http://www.w3.org/2000/svg">
<path d="M96.5711 98.1748L1.46484 3.02905H189.227L286.781 98.1748H96.5711Z" fill="#FF5500"/>
<path d="M1.30176 192.788H191.314V383.197H1.30176V192.788Z" fill="#FF5500"/>
<path d="M381.962 192.788H571.975V383.197H381.962V192.788Z" fill="#FF5500"/>
<path fill-rule="evenodd" clip-rule="evenodd" d="M285.494 288.401L190.618 193.485L192.011 192.091L287.464 287.584V479.387H95.7415L0.288086 383.894L1.68108 382.5L96.5575 477.416H284.101L190.618 383.894L192.011 382.5L285.494 476.022V288.401Z" fill="#23383D"/>
<path fill-rule="evenodd" clip-rule="evenodd" d="M474.837 480.372H288.448V666.839H474.837V480.372ZM286.478 478.401V668.81H476.807V478.401H286.478Z" fill="#23383D"/>
<path fill-rule="evenodd" clip-rule="evenodd" d="M570.987 574.015L476.11 479.099L477.503 477.706L572.957 573.199V765.001H381.234L285.78 669.508L287.173 668.114L382.05 763.03H569.594L476.11 669.508L477.503 668.114L570.987 761.637V574.015Z" fill="#23383D"/>
<path d="M476.809 478.401V668.81L571.974 764.015V573.606L476.809 478.401Z" fill="#FF5500"/>
<path fill-rule="evenodd" clip-rule="evenodd" d="M95.166 287.008H477.219L574.354 384.183H381.238L287.466 290.372V479.387H95.166V287.008ZM288.859 288.979L382.054 382.212H569.598L476.403 288.979H288.859ZM285.496 288.979V477.417H97.136V288.979H285.496Z" fill="#23383D"/>
<path fill-rule="evenodd" clip-rule="evenodd" d="M285.492 96.5986H477.215L572.669 192.092L571.276 193.485L476.399 98.5694H288.855L382.339 192.092L380.946 193.485L287.462 99.963V287.993H285.492V96.5986Z" fill="#23383D"/>
<path fill-rule="evenodd" clip-rule="evenodd" d="M190.211 3.02992L190.198 195.528L188.228 195.528L188.241 3.02979L190.211 3.02992Z" fill="#23383D"/>
<path fill-rule="evenodd" clip-rule="evenodd" d="M0 0L97.1349 97.1752V290.371L0 193.196V0ZM1.97 4.75797V192.38L95.1649 285.613V97.9916L1.97 4.75797Z" fill="#23383D"/>
<path fill-rule="evenodd" clip-rule="evenodd" d="M572.958 -0.000244141V193.196L479.186 287.007H666.73L761.607 192.091L763 193.484L667.546 288.977H475.823V97.175L572.958 -0.000244141ZM477.793 285.613V97.9913L570.988 4.75773V192.379L477.793 285.613Z" fill="#23383D"/>
<path fill-rule="evenodd" clip-rule="evenodd" d="M760.334 4.34972H573.945V190.817H760.334V4.34972ZM571.975 2.37891V192.788H762.304V2.37891H571.975Z" fill="#23383D"/>
<path fill-rule="evenodd" clip-rule="evenodd" d="M666.73 96.5977L761.607 1.68188L763 3.07546L668.123 97.9913V287.992H666.153V98.5685H476.809V96.5977H666.73Z" fill="#23383D"/>
<path d="M667.141 287.992V97.5833L762.306 2.37891V192.788L667.141 287.992Z" fill="#FF5500"/>
</svg>
