<svg width="9" height="9" viewBox="0 0 9 9" fill="none" xmlns="http://www.w3.org/2000/svg">
<path d="M8.62919 0.206345C8.20885 -0.123274 7.60097 -0.0501659 7.27077 0.369719L3.1239 5.6471L1.69488 3.93268C1.34845 3.53912 0.751675 3.49286 0.34873 3.82833C-0.0542154 4.1638 -0.116883 4.75907 0.20737 5.1711L2.40283 7.80625C2.423 7.83046 2.45225 7.83853 2.47343 7.86071C2.49645 7.89116 2.52138 7.92013 2.54805 7.94744C2.59102 7.97533 2.63622 7.99962 2.68319 8.02005C2.71567 8.04023 2.74935 8.05842 2.78404 8.07451C2.89812 8.12411 3.02072 8.15117 3.14507 8.15418H3.14608C3.27556 8.15145 3.40315 8.12264 3.52124 8.06947C3.55709 8.05186 3.59178 8.03198 3.62511 8.00997C3.67447 7.98731 3.72172 7.96031 3.7663 7.92929C3.79242 7.90062 3.81668 7.87031 3.83891 7.83853C3.85908 7.81836 3.88832 7.80827 3.90749 7.78407L8.79357 1.56578C9.12365 1.14501 9.05005 0.536313 8.62919 0.206346V0.206345Z" fill="#FDFDFD"/>
</svg>
