<svg width="6" height="9" viewBox="0 0 6 9" fill="none" xmlns="http://www.w3.org/2000/svg">
<path d="M5.11151 3.91149L5.1105 3.91047L1.44977 0.248742C1.29051 0.0894751 1.0745 -2.37326e-09 0.849258 0C0.624021 2.37326e-09 0.408008 0.0894751 0.248742 0.248742C0.089475 0.408009 2.37326e-09 0.624021 0 0.849258C-2.37326e-09 1.0745 0.089475 1.29051 0.248742 1.44977L3.31198 4.512L0.248742 7.57524C0.100041 7.73653 0.0195299 7.94912 0.0240759 8.16845C0.028622 8.38779 0.117872 8.59685 0.273129 8.75184C0.428385 8.90684 0.6376 8.99574 0.856941 8.99992C1.07628 9.00409 1.28873 8.92322 1.44977 8.77425L5.1105 5.11252H5.11151C5.19068 5.03362 5.25349 4.93987 5.29635 4.83665C5.33922 4.73343 5.36128 4.62276 5.36128 4.51099C5.36128 4.39922 5.33922 4.28855 5.29635 4.18533C5.25349 4.0821 5.19068 3.98836 5.11151 3.90946V3.91149Z" fill="#464646"/>
</svg>
