<svg width="18" height="16" viewBox="0 0 18 16" fill="none" xmlns="http://www.w3.org/2000/svg">
<path fill-rule="evenodd" clip-rule="evenodd" d="M17.8415 8.61695L9.38257 0.157984C9.28094 0.0568047 9.14337 0 8.99997 0C8.85656 0 8.719 0.0568047 8.61737 0.157984L0.158405 8.61695C0.0569765 8.71845 0 8.85606 0 8.99955C0 9.14304 0.0569765 9.28065 0.158405 9.38215L1.15724 10.3805C1.25288 10.4761 1.38262 10.5299 1.5179 10.5299H1.85816V15.1211C1.85816 15.2564 1.9119 15.3862 2.00757 15.4818C2.10324 15.5775 2.23299 15.6312 2.36829 15.6312H6.44932C6.58462 15.6312 6.71437 15.5775 6.81004 15.4818C6.90571 15.3862 6.95945 15.2564 6.95945 15.1211V10.0198C6.95945 9.88451 7.0132 9.75476 7.10887 9.65909C7.20453 9.56342 7.33429 9.50968 7.46958 9.50968H10.5304C10.6657 9.50968 10.7954 9.56342 10.8911 9.65909C10.9867 9.75476 11.0405 9.88451 11.0405 10.0198V15.1211C11.0405 15.2564 11.0942 15.3862 11.1899 15.4818C11.2856 15.5775 11.4153 15.6312 11.5506 15.6312H15.6317C15.7669 15.6312 15.8967 15.5775 15.9924 15.4818C16.088 15.3862 16.1418 15.2564 16.1418 15.1211V10.5299H16.482C16.6173 10.5299 16.7471 10.4761 16.8427 10.3805L17.8415 9.38215C17.943 9.28065 17.9999 9.14304 17.9999 8.99955C17.9999 8.85606 17.943 8.71845 17.8415 8.61695Z" fill="#222222"/>
</svg>
