<svg width="24" height="25" viewBox="0 0 24 25" fill="none" xmlns="http://www.w3.org/2000/svg">
<rect width="24" height="24" transform="translate(0 0.200195)" fill="white"/>
<path fill-rule="evenodd" clip-rule="evenodd" d="M23.04 12.4616C23.04 11.6462 22.9668 10.8621 22.8309 10.1094H12V14.5578H18.1891C17.9225 15.9953 17.1123 17.2132 15.8943 18.0287V20.9141H19.6109C21.7855 18.9121 23.04 15.9639 23.04 12.4616Z" fill="#4285F4"/>
<path fill-rule="evenodd" clip-rule="evenodd" d="M12 23.7003C15.105 23.7003 17.7081 22.6705 19.6109 20.9141L15.8943 18.0287C14.8645 18.7187 13.5472 19.1264 12 19.1264C9.00474 19.1264 6.46951 17.1034 5.56519 14.3853H1.72314V17.3648C3.61542 21.1232 7.50451 23.7003 12 23.7003Z" fill="#34A853"/>
<path fill-rule="evenodd" clip-rule="evenodd" d="M5.56523 14.3852C5.33523 13.6952 5.20455 12.9581 5.20455 12.2002C5.20455 11.4422 5.33523 10.7052 5.56523 10.0152V7.03564H1.72318C0.944318 8.58814 0.5 10.3445 0.5 12.2002C0.5 14.0559 0.944318 15.8122 1.72318 17.3647L5.56523 14.3852Z" fill="#FBBC05"/>
<path fill-rule="evenodd" clip-rule="evenodd" d="M12 5.27406C13.6884 5.27406 15.2043 5.85429 16.3961 6.99383L19.6945 3.69542C17.7029 1.83974 15.0997 0.700195 12 0.700195C7.50451 0.700195 3.61542 3.27724 1.72314 7.03565L5.56519 10.0152C6.46951 7.29701 9.00474 5.27406 12 5.27406Z" fill="#EA4335"/>
</svg>
