<svg width="10" height="14" viewBox="0 0 10 14" fill="none" xmlns="http://www.w3.org/2000/svg">
<path d="M0 13.9677V0H5.17699C6.12052 0 6.95231 0.174987 7.67237 0.524961C8.40485 0.862434 8.97593 1.3624 9.38562 2.02484C9.79531 2.67479 10.0001 3.46848 10.0001 4.40591C10.0001 5.33084 9.78909 6.12453 9.36699 6.78698C8.9573 7.43693 8.39243 7.93689 7.67237 8.28686C6.95231 8.63684 6.12052 8.81182 5.17699 8.81182H2.53262V13.9677H0ZM2.53262 6.562H5.21423C5.67358 6.562 6.07085 6.4745 6.40605 6.29952C6.74125 6.11203 7.00196 5.8558 7.18819 5.53083C7.37441 5.20585 7.46752 4.83088 7.46752 4.40591C7.46752 3.96845 7.37441 3.59347 7.18819 3.281C7.00196 2.95602 6.74125 2.70604 6.40605 2.53106C6.07085 2.34357 5.67358 2.24983 5.21423 2.24983H2.53262V6.562Z" fill="white"/>
</svg>
