<svg width="124" height="34" viewBox="0 0 124 34" fill="none" xmlns="http://www.w3.org/2000/svg">
<g clip-path="url(#clip0_156_2031)">
<path d="M119.32 19.9827V9.05328H115.968V6.95483H125V9.05328H121.7V19.9827H119.32Z" fill="white"/>
<path d="M112.697 19.9827V6.95483H115.059V19.9827H112.697Z" fill="white"/>
<path d="M101.956 19.9827V6.95483H106.785C107.665 6.95483 108.441 7.11805 109.112 7.44447C109.795 7.75924 110.328 8.22556 110.71 8.84344C111.092 9.44965 111.283 10.1899 111.283 11.0643C111.283 11.927 111.086 12.6673 110.693 13.2851C110.311 13.8914 109.784 14.3577 109.112 14.6841C108.441 15.0105 107.665 15.1738 106.785 15.1738H104.318V19.9827H101.956ZM104.318 13.0753H106.819C107.248 13.0753 107.618 12.9937 107.931 12.8305C108.244 12.6556 108.487 12.4166 108.661 12.1135C108.834 11.8104 108.921 11.4607 108.921 11.0643C108.921 10.6563 108.834 10.3065 108.661 10.0151C108.487 9.71196 108.244 9.4788 107.931 9.31559C107.618 9.14072 107.248 9.05328 106.819 9.05328H104.318V13.0753Z" fill="white"/>
<path d="M90.6885 19.9827V6.95483H93.0507V13.7398L92.408 13.5125L97.9141 6.95483H100.884L95.7256 13.1103L95.8645 11.4315L101.041 19.9827H98.2615L94.7876 14.2469L93.0507 16.3279V19.9827H90.6885Z" fill="white"/>
<path d="M83.8373 20.1927C82.911 20.1927 82.0541 20.0236 81.2667 19.6855C80.4909 19.3475 79.8077 18.8753 79.2171 18.2691C78.6381 17.6629 78.1865 16.9517 77.8623 16.1357C77.5381 15.3196 77.376 14.4278 77.376 13.4601C77.376 12.4925 77.5323 11.6007 77.8449 10.7846C78.1692 9.95691 78.6208 9.24577 79.1997 8.65121C79.7903 8.04499 80.4793 7.57867 81.2667 7.25224C82.0541 6.91416 82.911 6.74512 83.8373 6.74512C84.7637 6.74512 85.5916 6.9025 86.3211 7.21727C87.0622 7.53204 87.6875 7.95172 88.197 8.47634C88.7065 8.98929 89.0713 9.5547 89.2913 10.1726L87.1722 11.1693C86.9291 10.5165 86.518 9.98022 85.939 9.56053C85.36 9.12919 84.6595 8.91351 83.8373 8.91351C83.0268 8.91351 82.3088 9.10587 81.6835 9.49059C81.0698 9.8753 80.5893 10.4057 80.2419 11.0819C79.9061 11.7581 79.7382 12.5508 79.7382 13.4601C79.7382 14.3695 79.9061 15.1681 80.2419 15.8559C80.5893 16.532 81.0698 17.0625 81.6835 17.4472C82.3088 17.8319 83.0268 18.0243 83.8373 18.0243C84.6595 18.0243 85.36 17.8144 85.939 17.3947C86.518 16.9634 86.9291 16.4213 87.1722 15.7684L89.2913 16.7652C89.0713 17.3831 88.7065 17.9543 88.197 18.4789C87.6875 18.9919 87.0622 19.4057 86.3211 19.7205C85.5916 20.0353 84.7637 20.1927 83.8373 20.1927Z" fill="white"/>
<path d="M69.4041 20.1927C68.4546 20.1927 67.5687 20.0236 66.7466 19.6855C65.9245 19.3475 65.2065 18.8753 64.5928 18.2691C63.9791 17.6629 63.4986 16.9517 63.1512 16.1357C62.8154 15.3079 62.6475 14.4161 62.6475 13.4601C62.6475 12.4925 62.8154 11.6007 63.1512 10.7846C63.487 9.96856 63.9617 9.25742 64.5754 8.65121C65.1892 8.04499 65.9071 7.57867 66.7292 7.25224C67.5514 6.91416 68.443 6.74512 69.4041 6.74512C70.3652 6.74512 71.2568 6.91416 72.079 7.25224C72.9011 7.59032 73.619 8.06248 74.2327 8.66869C74.8465 9.26325 75.3212 9.96856 75.657 10.7846C76.0044 11.6007 76.1781 12.4925 76.1781 13.4601C76.1781 14.4161 76.0044 15.3079 75.657 16.1357C75.3096 16.9517 74.8291 17.6629 74.2154 18.2691C73.6017 18.8753 72.8837 19.3475 72.0616 19.6855C71.251 20.0236 70.3652 20.1927 69.4041 20.1927ZM69.4041 18.0243C70.041 18.0243 70.6257 17.9135 71.1584 17.692C71.691 17.4589 72.1542 17.1383 72.5479 16.7302C72.9532 16.3222 73.2601 15.8384 73.4685 15.2788C73.6885 14.7192 73.7985 14.113 73.7985 13.4601C73.7985 12.8073 73.6885 12.2069 73.4685 11.659C73.2601 11.0994 72.9532 10.6156 72.5479 10.2076C72.1542 9.78787 71.691 9.46727 71.1584 9.24577C70.6257 9.02426 70.041 8.91351 69.4041 8.91351C68.7788 8.91351 68.1998 9.02426 67.6672 9.24577C67.1345 9.46727 66.6655 9.78787 66.2603 10.2076C65.8666 10.6156 65.5597 11.0994 65.3397 11.659C65.1197 12.2069 65.0097 12.8073 65.0097 13.4601C65.0097 14.113 65.1197 14.7192 65.3397 15.2788C65.5597 15.8384 65.8666 16.3222 66.2603 16.7302C66.6655 17.1383 67.1345 17.4589 67.6672 17.692C68.1998 17.9135 68.7788 18.0243 69.4041 18.0243Z" fill="white"/>
<path d="M56.1801 20.1927C55.2538 20.1927 54.3969 20.0236 53.6095 19.6855C52.8336 19.3475 52.1504 18.8753 51.5599 18.2691C50.9809 17.6629 50.5293 16.9517 50.2051 16.1357C49.8809 15.3196 49.7188 14.4278 49.7188 13.4601C49.7188 12.4925 49.8751 11.6007 50.1877 10.7846C50.5119 9.95691 50.9635 9.24577 51.5425 8.65121C52.1331 8.04499 52.8221 7.57867 53.6095 7.25224C54.3969 6.91416 55.2538 6.74512 56.1801 6.74512C57.1065 6.74512 57.9344 6.9025 58.6639 7.21727C59.405 7.53204 60.0303 7.95172 60.5398 8.47634C61.0493 8.98929 61.414 9.5547 61.6341 10.1726L59.515 11.1693C59.2718 10.5165 58.8608 9.98022 58.2818 9.56053C57.7028 9.12919 57.0023 8.91351 56.1801 8.91351C55.3695 8.91351 54.6516 9.10587 54.0263 9.49059C53.4126 9.8753 52.9321 10.4057 52.5847 11.0819C52.2489 11.7581 52.081 12.5508 52.081 13.4601C52.081 14.3695 52.2489 15.1681 52.5847 15.8559C52.9321 16.532 53.4126 17.0625 54.0263 17.4472C54.6516 17.8319 55.3695 18.0243 56.1801 18.0243C57.0023 18.0243 57.7028 17.8144 58.2818 17.3947C58.8608 16.9634 59.2718 16.4213 59.515 15.7684L61.6341 16.7652C61.414 17.3831 61.0493 17.9543 60.5398 18.4789C60.0303 18.9919 59.405 19.4057 58.6639 19.7205C57.9344 20.0353 57.1065 20.1927 56.1801 20.1927Z" fill="white"/>
<path d="M45.6396 19.9826V17.5344H47.9324V19.9826H45.6396Z" fill="white"/>
<path d="M40.4238 19.9827V6.95483H42.786V19.9827H40.4238Z" fill="white"/>
<path d="M27.5205 19.9827L31.9844 6.95483H35.0414L39.5053 19.9827H36.9346L36.0141 17.1848H31.0117L30.0738 19.9827H27.5205ZM31.6891 15.0863H35.3367L33.1829 8.59862H33.8429L31.6891 15.0863Z" fill="white"/>
<path d="M13.5317 23.0832L13.5234 11.5293L20.9627 17.3306V28.8564L13.5317 23.0832Z" fill="white"/>
<path d="M-0.394531 11.529V23.0549L11.0537 11.529V0.00317383L-0.394531 11.529Z" fill="white"/>
</g>
<defs>
<clipPath id="clip0_156_2031">
<rect width="124" height="34" fill="white"/>
</clipPath>
</defs>
</svg>
