<svg width="12" height="14" viewBox="0 0 12 14" fill="none" xmlns="http://www.w3.org/2000/svg">
<path d="M6.50717 13.5429C5.57424 13.5429 4.71128 13.3726 3.91829 13.0322C3.13697 12.6917 2.44894 12.2162 1.8542 11.6057C1.27112 10.9952 0.816313 10.279 0.489789 9.45712C0.163264 8.63527 0 7.73711 0 6.76263C0 5.78816 0.15743 4.89 0.472293 4.06815C0.798818 3.23456 1.25362 2.51838 1.8367 1.9196C2.43144 1.30909 3.12531 0.839459 3.91829 0.51072C4.71128 0.17024 5.57424 0 6.50717 0C7.4401 0 8.2739 0.158499 9.00858 0.475498C9.75492 0.792497 10.3846 1.21516 10.8978 1.74349C11.4109 2.26008 11.7782 2.82951 11.9998 3.45176L9.86571 4.45559C9.62081 3.79811 9.20683 3.25804 8.62375 2.83538C8.04067 2.40097 7.33514 2.18377 6.50717 2.18377C5.69086 2.18377 4.96784 2.37749 4.33811 2.76493C3.72005 3.15237 3.23609 3.68658 2.88625 4.36754C2.54806 5.04849 2.37897 5.84686 2.37897 6.76263C2.37897 7.67841 2.54806 8.48265 2.88625 9.17535C3.23609 9.85631 3.72005 10.3905 4.33811 10.7779C4.96784 11.1654 5.69086 11.3591 6.50717 11.3591C7.33514 11.3591 8.04067 11.1478 8.62375 10.7251C9.20683 10.2907 9.62081 9.74477 9.86571 9.08729L11.9998 10.0911C11.7782 10.7134 11.4109 11.2887 10.8978 11.817C10.3846 12.3336 9.75492 12.7504 9.00858 13.0674C8.2739 13.3844 7.4401 13.5429 6.50717 13.5429Z" fill="white"/>
</svg>
