<svg width="14" height="14" viewBox="0 0 14 14" fill="none" xmlns="http://www.w3.org/2000/svg">
<path d="M6.99095 13.9139C6.0085 13.9139 5.09195 13.739 4.2413 13.3892C3.39064 13.0394 2.64782 12.5509 2.01282 11.9236C1.37782 11.2964 0.880608 10.5606 0.521176 9.71621C0.173726 8.85978 0 7.93701 0 6.9479C0 5.94673 0.173726 5.02396 0.521176 4.1796C0.868627 3.33523 1.35985 2.59943 1.99485 1.97219C2.62985 1.34495 3.37267 0.862456 4.22333 0.524711C5.07398 0.174904 5.99652 0 6.99095 0C7.98538 0 8.90793 0.174904 9.75858 0.524711C10.6092 0.874519 11.3521 1.36304 11.9871 1.99029C12.6221 2.60546 13.1133 3.33523 13.4607 4.1796C13.8202 5.02396 13.9999 5.94673 13.9999 6.9479C13.9999 7.93701 13.8202 8.85978 13.4607 9.71621C13.1013 10.5606 12.6041 11.2964 11.9691 11.9236C11.3341 12.5509 10.5913 13.0394 9.74061 13.3892C8.90193 13.739 7.98538 13.9139 6.99095 13.9139ZM6.99095 11.6703C7.64991 11.6703 8.25495 11.5557 8.80608 11.3265C9.35721 11.0853 9.83646 10.7536 10.2438 10.3314C10.6632 9.9092 10.9806 9.40862 11.1963 8.82963C11.4239 8.25064 11.5378 7.62339 11.5378 6.9479C11.5378 6.27241 11.4239 5.6512 11.1963 5.08427C10.9806 4.50528 10.6632 4.00469 10.2438 3.58251C9.83646 3.14827 9.35721 2.81655 8.80608 2.58737C8.25495 2.35819 7.64991 2.24359 6.99095 2.24359C6.34397 2.24359 5.74492 2.35819 5.19379 2.58737C4.64266 2.81655 4.15743 3.14827 3.73809 3.58251C3.33074 4.00469 3.01324 4.50528 2.7856 5.08427C2.55796 5.6512 2.44414 6.27241 2.44414 6.9479C2.44414 7.62339 2.55796 8.25064 2.7856 8.82963C3.01324 9.40862 3.33074 9.9092 3.73809 10.3314C4.15743 10.7536 4.64266 11.0853 5.19379 11.3265C5.74492 11.5557 6.34397 11.6703 6.99095 11.6703Z" fill="white"/>
</svg>
